<svg id="Layer_1" enable-background="new 0 0 511.5 511.5" height="512" viewBox="0 0 511.5 511.5" width="512" xmlns="http://www.w3.org/2000/svg"><g><path d="m488 311.25c-12.958 0-23.5-10.542-23.5-23.5s10.542-23.5 23.5-23.5 23.5 10.542 23.5 23.5-10.542 23.5-23.5 23.5zm0-32c-4.687 0-8.5 3.813-8.5 8.5s3.813 8.5 8.5 8.5 8.5-3.813 8.5-8.5-3.813-8.5-8.5-8.5z"/></g><g><g><path d="m448.5 159.75h15v48h-15z"/></g><g><path d="m432 176.25h48v15h-48z"/></g></g><g><g><path d="m16.5 247.75h15v48h-15z"/></g><g><path d="m0 264.25h48v15h-48z"/></g></g><g><path d="m288 207.25c-17.369 0-31.5-14.131-31.5-31.5s14.131-31.5 31.5-31.5 31.5 14.131 31.5 31.5-14.131 31.5-31.5 31.5zm0-48c-9.098 0-16.5 7.402-16.5 16.5s7.402 16.5 16.5 16.5 16.5-7.402 16.5-16.5-7.402-16.5-16.5-16.5z"/></g><g><path d="m119.5 103.25h273v176.5h15v-191.5h-32v-32h-303v303h32v16h199.5v-15h-184.5zm-32 241v-273h273v17h-256v256z"/><path d="m392 296.25c-5.657 0-11.174.604-16.5 1.733v-177.733h-239v223h182.975c-4.468 9.93-6.975 20.924-6.975 32.5 0 43.836 35.663 79.5 79.5 79.5s79.5-35.664 79.5-79.5-35.663-79.5-79.5-79.5zm-240.5-161h209v134.672l-56.485-56.793-64.015 64.015-32-32-56.5 56.5zm0 193v-5.394l56.5-56.5 32 32 63.985-63.985 64.95 65.303c-16.417 4.987-30.605 15.142-40.646 28.576zm240.5 112c-35.565 0-64.5-28.935-64.5-64.5s28.935-64.5 64.5-64.5 64.5 28.935 64.5 64.5-28.935 64.5-64.5 64.5z"/></g><g><path d="m411 423.356-19-19-19 19-28.606-28.606 19-19-19-19 28.606-28.606 19 19 19-19 28.606 28.606-19 19 19 19zm-19-40.212 19 19 7.394-7.394-19-19 19-19-7.394-7.394-19 19-19-19-7.394 7.394 19 19-19 19 7.394 7.394z"/></g><g><path d="m40 191.25c-12.958 0-23.5-10.542-23.5-23.5s10.542-23.5 23.5-23.5 23.5 10.542 23.5 23.5-10.542 23.5-23.5 23.5zm0-32c-4.687 0-8.5 3.813-8.5 8.5s3.813 8.5 8.5 8.5 8.5-3.813 8.5-8.5-3.813-8.5-8.5-8.5z"/></g><g><g><path d="m176 168.25h16v15h-16z"/></g><g><path d="m208 168.25h16v15h-16z"/></g></g></svg>